<svg width="1200" height="750" viewBox="0 0 1200 750" fill="none" xmlns="http://www.w3.org/2000/svg">
  <rect width="1200" height="750" fill="#F1EAD9"/>
  <rect x="80" y="70" width="1040" height="610" fill="#E7DFC9" stroke="#1A1816" stroke-width="4"/>
  <rect x="80" y="70" width="1040" height="54" fill="#1A1816"/>
  <circle cx="116" cy="97" r="8" fill="#B5491E"/>
  <circle cx="146" cy="97" r="8" fill="#C9C0AC"/>
  <circle cx="176" cy="97" r="8" fill="#F1EAD9"/>
  <text x="214" y="103" fill="#F1EAD9" font-family="monospace" font-size="22">job-application-agent</text>
  <text x="1020" y="103" fill="#C9C0AC" font-family="monospace" font-size="18">v0.4</text>
  <text x="120" y="180" fill="#B5491E" font-family="monospace" font-size="26">$ pipeline --truth-audit</text>
  <text x="120" y="225" fill="#1A1816" font-family="monospace" font-size="42" font-weight="700">Resume claims, verified.</text>
  <text x="122" y="266" fill="#6B655A" font-family="monospace" font-size="21">Scrape jobs, score fit, tailor artifacts, block unsupported claims.</text>
  <g font-family="monospace" font-size="18">
    <rect x="120" y="330" width="210" height="96" fill="#F1EAD9" stroke="#1A1816" stroke-width="2"/>
    <text x="142" y="366" fill="#B5491E">01 parse</text>
    <text x="142" y="398" fill="#1A1816">company + skills</text>
    <rect x="380" y="330" width="210" height="96" fill="#F1EAD9" stroke="#1A1816" stroke-width="2"/>
    <text x="402" y="366" fill="#B5491E">02 score</text>
    <text x="402" y="398" fill="#1A1816">fit vs profile</text>
    <rect x="640" y="330" width="210" height="96" fill="#F1EAD9" stroke="#1A1816" stroke-width="2"/>
    <text x="662" y="366" fill="#B5491E">03 tailor</text>
    <text x="662" y="398" fill="#1A1816">resume + letter</text>
    <rect x="900" y="330" width="160" height="96" fill="#1A1816" stroke="#1A1816" stroke-width="2"/>
    <text x="922" y="366" fill="#F1EAD9">04 audit</text>
    <text x="922" y="398" fill="#E7DFC9">PASS/FAIL</text>
    <path d="M338 378H370" stroke="#B5491E" stroke-width="4"/>
    <path d="M598 378H630" stroke="#B5491E" stroke-width="4"/>
    <path d="M858 378H890" stroke="#B5491E" stroke-width="4"/>
  </g>
  <g font-family="monospace" font-size="18">
    <rect x="120" y="486" width="440" height="126" fill="#1A1816"/>
    <text x="146" y="524" fill="#F1EAD9">backend: FastAPI + Typer CLI</text>
    <text x="146" y="558" fill="#C9C0AC">tracker.csv / outputs / YAML truth</text>
    <text x="146" y="592" fill="#B5491E">PDF gate: audit before render</text>
    <rect x="620" y="486" width="440" height="126" fill="#F1EAD9" stroke="#1A1816" stroke-width="2"/>
    <text x="646" y="524" fill="#1A1816">dashboard: React + Vite</text>
    <text x="646" y="558" fill="#6B655A">sort / search / star / archive</text>
    <text x="646" y="592" fill="#B5491E">Cloudflare Tunnel -> local API</text>
  </g>
  <rect x="118" y="642" width="944" height="2" fill="#C9C0AC"/>
  <text x="120" y="666" fill="#6B655A" font-family="monospace" font-size="16">Greenhouse / Lever / Ashby / HN -> scheduled scraper -> reviewed applications</text>
</svg>
